<?xml version="1.0" encoding="utf-8"?>
<!-- Generator: Adobe Illustrator 21.1.0, SVG Export Plug-In . SVG Version: 6.00 Build 0)  -->
<svg version="1.1"
 viewBox="0 0 356 181">
<rect id="_Slice_" class="st0" width="356" height="181"/>
<path class="st1" d="M192.4,155.8c-0.4,0-0.7-0.1-1-0.3c-0.2-0.3-0.3-0.6-0.3-1v-34c0-0.4,0.1-0.7,0.3-1c0.3-0.2,0.6-0.3,1-0.3h3.7
	c0.7-0.1,1.3,0.4,1.4,1.1l0.4,1.3c1.1-1,2.3-1.8,3.7-2.4c1.4-0.6,2.9-0.9,4.4-0.9c3-0.1,6,1.2,7.8,3.6c1.9,2.4,2.9,5.7,2.9,9.8
	c0.1,2.5-0.4,5.1-1.4,7.4c-0.8,1.9-2.2,3.6-3.9,4.9c-1.6,1.1-3.6,1.7-5.6,1.7c-1.4,0-2.7-0.2-4-0.7c-1.2-0.4-2.3-1-3.2-1.8v11.2
	c0.1,0.6-0.2,1.1-0.8,1.3c-0.2,0-0.3,0-0.5,0L192.4,155.8L192.4,155.8z M203.6,140.2c1.6,0.1,3.2-0.6,4.2-1.9
	c0.9-1.3,1.4-3.3,1.4-6.1s-0.4-4.9-1.3-6.2c-1-1.3-2.6-2.1-4.2-1.9c-1.8,0-3.5,0.5-5,1.4v13.4C200.1,139.8,201.8,140.2,203.6,140.2z
	"/>
<path class="st1" d="M223,145.3c-0.6,0.1-1.2-0.3-1.3-0.9c0-0.1,0-0.3,0-0.4v-23.5c0-0.4,0.1-0.7,0.3-1c0.3-0.2,0.6-0.3,1-0.3h3.7
	c0.7-0.1,1.3,0.4,1.4,1.1l0.7,2.8c1.1-1.3,2.4-2.4,3.9-3.2c1.2-0.6,2.5-0.9,3.9-0.9h0.7c0.4,0,0.7,0.1,1,0.3c0.2,0.3,0.4,0.6,0.3,1
	v4.3c0,0.4-0.1,0.7-0.3,1c-0.3,0.2-0.6,0.4-1,0.3c-0.2,0-0.5,0-0.9,0s-0.9-0.1-1.4,0c-1,0-1.9,0.1-2.9,0.3c-1,0.2-1.9,0.5-2.9,0.8
	V144c0,0.4-0.1,0.7-0.3,1c-0.3,0.2-0.6,0.3-1,0.3L223,145.3L223,145.3z"/>
<path class="st1" d="M245.8,115.2c-1.1,0.1-2.2-0.3-3.1-1.1c-1.6-1.6-1.6-4.2,0-5.8c1.8-1.4,4.4-1.4,6.2,0c1.6,1.6,1.6,4.2,0,5.8
	C248.1,114.8,246.9,115.2,245.8,115.2z M243.3,145.3c-0.6,0.1-1.2-0.3-1.3-0.9c0-0.1,0-0.3,0-0.4v-23.5c0-0.4,0.1-0.7,0.3-1
	c0.3-0.2,0.6-0.3,1-0.3h4.9c0.6-0.1,1.1,0.2,1.3,0.8c0,0.2,0,0.3,0,0.5V144c0,0.4-0.1,0.7-0.3,1c-0.3,0.2-0.6,0.4-1,0.3L243.3,145.3
	L243.3,145.3z"/>
<path class="st1" d="M257.1,145.3c-0.6,0.1-1.2-0.3-1.3-0.9c0-0.1,0-0.3,0-0.4v-23.5c0-0.4,0.1-0.7,0.3-1c0.3-0.2,0.6-0.3,1-0.3h3.7
	c0.7-0.1,1.3,0.4,1.4,1.1l0.4,1.4c1.5-1,3.2-1.9,4.9-2.5c1.4-0.5,2.9-0.7,4.5-0.7c3.1,0,5.2,1.1,6.5,3.3c1.5-1,3.2-1.9,4.9-2.5
	c1.5-0.5,3.1-0.8,4.8-0.8c2-0.1,4,0.6,5.5,2c1.4,1.5,2.1,3.5,2,5.6v18c0,0.4-0.1,0.7-0.3,1c-0.3,0.2-0.6,0.3-1,0.3h-4.9
	c-0.6,0.1-1.2-0.3-1.3-0.9c0-0.1,0-0.3,0-0.4v-16.4c0-2.3-1-3.5-3.1-3.5c-1.9,0-3.8,0.5-5.6,1.3V144c0,0.4-0.1,0.7-0.3,1
	c-0.3,0.2-0.6,0.4-1,0.3h-4.9c-0.6,0.1-1.2-0.3-1.3-0.9c0-0.1,0-0.3,0-0.4v-16.4c0-2.3-1-3.5-3.1-3.5c-2,0-3.9,0.5-5.6,1.4V144
	c0,0.4-0.1,0.7-0.3,1c-0.3,0.2-0.6,0.3-1,0.3L257.1,145.3L257.1,145.3z"/>
<path class="st1" d="M313.3,146c-4.2,0-7.5-1.2-9.7-3.5s-3.4-5.6-3.4-10c0-4.4,1.2-7.9,3.5-10.4c2.3-2.5,5.5-3.8,9.7-3.8
	c3.2,0,5.6,0.8,7.4,2.3c1.8,1.5,2.8,3.8,2.7,6.1c0.1,2.3-1,4.5-2.9,5.8c-1.9,1.3-4.8,2-8.5,2c-1.7,0-3.4-0.2-5-0.6
	c0.2,2.3,0.9,3.9,2.1,4.9c1.6,1.1,3.4,1.6,5.3,1.5c0.9,0,1.9-0.1,2.8-0.2c1.3-0.2,2.5-0.5,3.8-0.8l0.3-0.1h0.3
	c0.6,0,0.9,0.4,0.9,1.2v2.4c0,0.4,0,0.8-0.2,1.1c-0.2,0.3-0.5,0.5-0.9,0.6C318.7,145.6,316,146.1,313.3,146z M311.6,130
	c1.3,0.1,2.6-0.2,3.8-0.8c0.8-0.5,1.2-1.5,1.2-2.4c0-2.1-1.3-3.2-3.8-3.2c-3.3,0-5.2,2-5.7,6C308.6,129.9,310.1,130,311.6,130
	L311.6,130z"/>
<path class="st2" d="M315.4,129.2c0.8-0.5,1.2-1.5,1.2-2.4c0-2.1-1.3-3.2-3.8-3.2c-3.3,0-5.2,2-5.7,6c1.5,0.3,3,0.4,4.5,0.4
	C312.9,130.1,314.3,129.8,315.4,129.2z"/>
<path class="st2" d="M329.7,50.1l-15.6-15.6H295V18.9h-33l-15.6,15.6h-17.3l-8.7,8.7v-8.7h-15.6V18.9h-59v15.6H74.8L59.1,18.9H26.2
	v69.4l15.6,15.6l26,15.6h22.5V116l8.7,3.5h42l7.5-8.7l1,8.7H177l0.6-8.7l6.1,5.4c0,12.8,0,47.4,0,48c-0.1,0.9,0.6,1.7,1.5,1.7
	c0,0,0,0,0,0h15.9c0.9-0.1,1.7-0.8,1.8-1.8l1.6-8.6h1.6c3.8,0,7.4-1.9,9.6-5c0,0-0.9,2.7-1.1,3.6c-0.2,0.5,0,1.1,0.5,1.3
	c0.2,0.1,0.3,0.1,0.5,0.1h15c1,0.2,1.9-0.5,2.1-1.4l1.3-3.6c0,0,0.6,2.7,0.9,3.6c0.1,0.9,0.9,1.5,1.8,1.4h55.8
	c2.5,0,2.7-0.6,3.5-1.4l0.3-0.3c2.4,1.1,4.9,1.7,7.5,1.9c16.9,0.9,23.7-6.4,24-9.7c0.1-0.8,2.2-13.2,0.8-21.1
	c-1-5.8-6.5-11.4-15.9-11.4l17.1-11.4L329.7,50.1L329.7,50.1z M215.2,139.2c-0.8,1.9-2.2,3.6-3.9,4.9c-1.6,1.1-3.6,1.7-5.6,1.7
	c-1.4,0-2.7-0.2-4-0.7c-1.2-0.4-2.3-1-3.2-1.8v11.2c0.1,0.6-0.2,1.1-0.8,1.3c-0.2,0-0.3,0-0.5,0h-4.9c-0.4,0-0.7-0.1-1-0.3
	c-0.2-0.3-0.3-0.6-0.3-1v-34c0-0.4,0.1-0.7,0.3-1c0.3-0.2,0.6-0.3,1-0.3h3.7c0.7-0.1,1.3,0.4,1.4,1.1l0.4,1.3c1.1-1,2.3-1.8,3.7-2.4
	c1.4-0.6,2.9-0.9,4.4-0.9c3-0.1,6,1.2,7.8,3.6c1.9,2.4,2.9,5.7,2.9,9.8C216.7,134.4,216.2,136.9,215.2,139.2z M238.5,124.5
	c0,0.4-0.1,0.7-0.3,1c-0.3,0.2-0.6,0.4-1,0.3c-0.2,0-0.5,0-0.9,0s-0.9-0.1-1.4,0c-1,0-1.9,0.1-2.9,0.3c-1,0.2-1.9,0.5-2.9,0.8V144
	c0,0.4-0.1,0.7-0.3,1c-0.3,0.2-0.6,0.3-1,0.3H223c-0.6,0.1-1.2-0.3-1.3-0.9c0-0.1,0-0.3,0-0.4v-23.6c0-0.4,0.1-0.7,0.3-1
	c0.3-0.2,0.6-0.3,1-0.3h3.7c0.7-0.1,1.3,0.4,1.4,1.1l0.7,2.8c1.1-1.3,2.4-2.4,3.9-3.2c1.2-0.6,2.5-0.9,3.9-0.9h0.7
	c0.4,0,0.7,0.1,1,0.3c0.2,0.3,0.4,0.6,0.3,1L238.5,124.5L238.5,124.5z M249.5,144c0,0.4-0.1,0.7-0.3,1c-0.3,0.2-0.6,0.4-1,0.3h-4.9
	c-0.6,0.1-1.2-0.3-1.3-0.9c0-0.1,0-0.3,0-0.4v-23.6c0-0.4,0.1-0.7,0.3-1c0.3-0.2,0.6-0.3,1-0.3h4.9c0.6-0.1,1.1,0.2,1.3,0.8
	c0,0.2,0,0.3,0,0.5L249.5,144L249.5,144z M248.9,114.1c-1.8,1.4-4.4,1.4-6.2,0c-1.6-1.6-1.6-4.2,0-5.8c1.8-1.4,4.4-1.4,6.2,0
	C250.5,109.9,250.5,112.5,248.9,114.1L248.9,114.1z M295.6,144c0,0.4-0.1,0.7-0.3,1c-0.3,0.2-0.6,0.3-1,0.3h-4.9
	c-0.6,0.1-1.2-0.3-1.3-0.9c0-0.1,0-0.3,0-0.4v-16.4c0-2.3-1-3.5-3.1-3.5c-1.9,0-3.8,0.5-5.6,1.3V144c0,0.4-0.1,0.7-0.3,1
	c-0.3,0.2-0.6,0.4-1,0.3h-4.9c-0.6,0.1-1.2-0.3-1.3-0.9c0-0.1,0-0.3,0-0.4v-16.4c0-2.3-1-3.5-3.1-3.5c-2,0-3.9,0.5-5.6,1.4V144
	c0,0.4-0.1,0.7-0.3,1c-0.3,0.2-0.6,0.3-1,0.3h-4.9c-0.6,0.1-1.2-0.3-1.3-0.9c0-0.1,0-0.3,0-0.4v-23.6c0-0.4,0.1-0.7,0.3-1
	c0.3-0.2,0.6-0.3,1-0.3h3.7c0.7-0.1,1.3,0.4,1.4,1.1l0.4,1.4c1.5-1,3.2-1.9,4.9-2.5c1.4-0.5,2.9-0.7,4.5-0.7c3.1,0,5.2,1.1,6.5,3.3
	c1.5-1,3.2-1.9,4.9-2.5c1.5-0.5,3.1-0.8,4.8-0.8c2-0.1,4,0.6,5.5,2c1.4,1.5,2.1,3.5,2,5.6L295.6,144L295.6,144z M313.3,118.4
	c3.2,0,5.6,0.8,7.4,2.3c1.8,1.5,2.8,3.8,2.7,6.1c0.1,2.3-1,4.5-2.9,5.8c-1.9,1.3-4.8,2-8.5,2c-1.7,0-3.4-0.2-5-0.6
	c0.2,2.3,0.9,3.9,2.1,4.9c1.6,1.1,3.4,1.6,5.3,1.5c0.9,0,1.9-0.1,2.8-0.2c1.3-0.2,2.5-0.5,3.8-0.8l0.3-0.1h0.3
	c0.6,0,0.9,0.4,0.9,1.2v2.4c0,0.4,0,0.8-0.2,1.1c-0.2,0.3-0.5,0.5-0.9,0.6c-2.5,1-5.2,1.4-7.9,1.4c-4.2,0-7.5-1.2-9.7-3.5
	c-2.3-2.3-3.4-5.6-3.4-10c0-4.4,1.2-7.9,3.5-10.4S309.2,118.4,313.3,118.4L313.3,118.4z"/>
<path class="st2" d="M203.6,124c-1.8,0-3.5,0.5-5,1.4v13.4c1.5,0.9,3.2,1.4,5,1.4c1.6,0.1,3.2-0.6,4.2-1.9c0.9-1.3,1.4-3.3,1.4-6.1
	s-0.4-4.9-1.3-6.2C206.8,124.6,205.2,123.9,203.6,124z"/>
<polygon class="st1" points="67.9,41.4 52.2,41.4 52.2,25.8 33.2,25.8 33.2,84.8 45.3,96.9 67.9,96.9 67.9,77.9 52.2,77.9 
	52.2,60.5 67.9,60.5 "/>
<polygon class="st1" points="145.9,41.4 126.8,41.4 126.8,77.9 119.9,77.9 119.9,41.4 100.8,41.4 100.8,77.9 93.9,77.9 93.9,41.4 
	74.8,41.4 74.8,96.9 133.8,96.9 145.9,84.8 "/>
<rect x="152.8" y="41.4" class="st1" width="19.1" height="55.5"/>
<rect x="152.8" y="25.8" class="st1" width="19.1" height="8.7"/>
<polygon class="st1" points="213.5,41.4 197.9,41.4 197.9,25.8 178.8,25.8 178.8,84.8 191,96.9 213.5,96.9 213.5,77.9 197.9,77.9 
	197.9,60.5 213.5,60.5 "/>
<polygon class="st1" points="262.1,41.4 232.6,41.4 220.5,53.6 220.5,84.8 232.6,96.9 262.1,96.9 262.1,77.9 239.5,77.9 239.5,60.5 
	262.1,60.5 "/>
<polygon class="st1" points="322.8,53.6 310.6,41.4 288.1,41.4 288.1,25.8 269,25.8 269,96.9 288.1,96.9 288.1,60.5 303.7,60.5 
	303.7,96.9 322.8,96.9 "/>
</svg>
